<svg xmlns="http://www.w3.org/2000/svg" version="1.1" viewBox="0.00 0.00 453.00 446.00" width="453.00" height="446.00">
<g stroke-width="2.00" fill="none" stroke-linecap="butt">
<path stroke="#80accc" d="&#10;  M 246.61 88.90&#10;  A 2.08 2.08 0.0 0 0 245.29 90.84&#10;  L 245.29 331.46&#10;  A 2.08 2.08 0.0 0 0 246.44 333.32&#10;  L 419.84 419.73&#10;  A 2.08 2.08 0.0 0 0 422.85 417.87&#10;  L 422.85 23.17&#10;  A 2.08 2.08 0.0 0 0 420.01 21.24&#10;  L 246.61 88.90"/>
<path stroke="#80accc" d="&#10;  M 27.21 21.44&#10;  A 2.92 2.92 0.0 0 0 23.23 24.16&#10;  L 23.23 416.17&#10;  A 2.92 2.92 0.0 0 0 27.45 418.78&#10;  L 199.58 333.14&#10;  A 2.92 2.92 0.0 0 0 201.20 330.52&#10;  L 201.20 91.35&#10;  A 2.92 2.92 0.0 0 0 199.34 88.63&#10;  L 27.21 21.44"/>
<path stroke="#80accc" d="&#10;  M 109.42 417.34&#10;  A 1.58 1.58 0.0 0 0 110.11 420.35&#10;  L 336.07 420.35&#10;  A 1.58 1.58 0.0 0 0 336.76 417.34&#10;  L 223.77 363.11&#10;  A 1.58 1.58 0.0 0 0 222.41 363.11&#10;  L 109.42 417.34"/>
</g>
<path fill="#ffffff" d="&#10;  M 453.00 0.00&#10;  L 453.00 446.00&#10;  L 0.00 446.00&#10;  L 0.00 0.00&#10;  L 453.00 0.00&#10;  Z&#10;  M 246.61 88.90&#10;  A 2.08 2.08 0.0 0 0 245.29 90.84&#10;  L 245.29 331.46&#10;  A 2.08 2.08 0.0 0 0 246.44 333.32&#10;  L 419.84 419.73&#10;  A 2.08 2.08 0.0 0 0 422.85 417.87&#10;  L 422.85 23.17&#10;  A 2.08 2.08 0.0 0 0 420.01 21.24&#10;  L 246.61 88.90&#10;  Z&#10;  M 27.21 21.44&#10;  A 2.92 2.92 0.0 0 0 23.23 24.16&#10;  L 23.23 416.17&#10;  A 2.92 2.92 0.0 0 0 27.45 418.78&#10;  L 199.58 333.14&#10;  A 2.92 2.92 0.0 0 0 201.20 330.52&#10;  L 201.20 91.35&#10;  A 2.92 2.92 0.0 0 0 199.34 88.63&#10;  L 27.21 21.44&#10;  Z&#10;  M 109.42 417.34&#10;  A 1.58 1.58 0.0 0 0 110.11 420.35&#10;  L 336.07 420.35&#10;  A 1.58 1.58 0.0 0 0 336.76 417.34&#10;  L 223.77 363.11&#10;  A 1.58 1.58 0.0 0 0 222.41 363.11&#10;  L 109.42 417.34&#10;  Z"/>
<path fill="#015999" d="&#10;  M 246.61 88.90&#10;  L 420.01 21.24&#10;  A 2.08 2.08 0.0 0 1 422.85 23.17&#10;  L 422.85 417.87&#10;  A 2.08 2.08 0.0 0 1 419.84 419.73&#10;  L 246.44 333.32&#10;  A 2.08 2.08 0.0 0 1 245.29 331.46&#10;  L 245.29 90.84&#10;  A 2.08 2.08 0.0 0 1 246.61 88.90&#10;  Z"/>
<path fill="#015999" d="&#10;  M 27.21 21.44&#10;  L 199.34 88.63&#10;  A 2.92 2.92 0.0 0 1 201.20 91.35&#10;  L 201.20 330.52&#10;  A 2.92 2.92 0.0 0 1 199.58 333.14&#10;  L 27.45 418.78&#10;  A 2.92 2.92 0.0 0 1 23.23 416.17&#10;  L 23.23 24.16&#10;  A 2.92 2.92 0.0 0 1 27.21 21.44&#10;  Z"/>
<path fill="#015999" d="&#10;  M 109.42 417.34&#10;  L 222.41 363.11&#10;  A 1.58 1.58 0.0 0 1 223.77 363.11&#10;  L 336.76 417.34&#10;  A 1.58 1.58 0.0 0 1 336.07 420.35&#10;  L 110.11 420.35&#10;  A 1.58 1.58 0.0 0 1 109.42 417.34&#10;  Z"/>
</svg>