<svg xmlns="http://www.w3.org/2000/svg" version="1.1" viewBox="0.00 0.00 196.00 82.00" width="196.00" height="82.00">
<g stroke-width="2.00" fill="none" stroke-linecap="butt">
<path stroke="#7eacc9" stroke-opacity="0.996" d="&#10;  M 166.57 25.90&#10;  Q 163.84 21.02 160.58 16.41&#10;  Q 160.09 15.71 159.29 15.48"/>
<path stroke="#7eacc9" stroke-opacity="0.996" d="&#10;  M 166.80 26.09&#10;  Q 165.55 26.15 165.16 25.58&#10;  Q 161.90 20.89 158.79 16.07"/>
</g>
<path fill="#005a9a" d="&#10;  M 2.27 1.36&#10;  L 36.03 14.64&#10;  A 0.79 0.79 0.0 0 1 36.53 15.38&#10;  L 36.53 62.69&#10;  A 0.79 0.79 0.0 0 1 36.09 63.40&#10;  L 2.33 80.11&#10;  A 0.79 0.79 0.0 0 1 1.19 79.40&#10;  L 1.19 2.10&#10;  A 0.79 0.79 0.0 0 1 2.27 1.36&#10;  Z"/>
<path fill="#005a9a" d="&#10;  M 45.84 14.71&#10;  L 80.39 1.06&#10;  A 0.31 0.31 0.0 0 1 80.81 1.35&#10;  L 80.81 80.22&#10;  A 0.31 0.31 0.0 0 1 80.36 80.50&#10;  L 45.81 63.23&#10;  A 0.31 0.31 0.0 0 1 45.64 62.95&#10;  L 45.64 15.00&#10;  A 0.31 0.31 0.0 0 1 45.84 14.71&#10;  Z"/>
<rect fill="#005a9a" x="92.22" y="12.10" width="10.20" height="40.96" rx="1.13"/>
<path fill="#005a9a" d="&#10;  M 133.65 53.01&#10;  L 126.17 53.01&#10;  A 0.83 0.83 0.0 0 1 125.40 52.49&#10;  L 109.90 13.28&#10;  A 0.83 0.83 0.0 0 1 110.67 12.14&#10;  L 119.94 12.14&#10;  A 0.83 0.83 0.0 0 1 120.72 12.70&#10;  L 134.43 51.91&#10;  A 0.83 0.83 0.0 0 1 133.65 53.01&#10;  Z"/>
<path fill="#005a9a" d="&#10;  M 166.57 25.90&#10;  Q 163.84 21.02 160.58 16.41&#10;  Q 160.09 15.71 159.29 15.48&#10;  Q 159.41 14.53 158.50 13.23&#10;  A 0.72 0.72 0.0 0 1 159.09 12.09&#10;  L 165.98 12.12&#10;  A 2.92 2.87 -29.5 0 1 167.36 12.49&#10;  Q 168.32 13.04 169.75 15.26&#10;  Q 178.29 28.49 188.50 43.23&#10;  Q 191.72 47.87 194.45 52.30&#10;  A 0.51 0.50 74.3 0 1 194.02 53.07&#10;  L 186.32 53.07&#10;  A 1.76 1.75 73.4 0 1 184.85 52.27&#10;  Q 178.37 42.28 170.61 30.90&#10;  Q 168.76 28.19 166.57 25.90&#10;  Z"/>
<path fill="#005a9a" d="&#10;  M 140.64 12.24&#10;  L 149.97 12.24&#10;  A 0.68 0.68 0.0 0 1 150.60 13.17&#10;  L 136.57 48.83&#10;  A 0.68 0.68 0.0 0 1 135.30 48.80&#10;  L 131.50 37.94&#10;  A 0.68 0.68 0.0 0 1 131.50 37.50&#10;  L 139.99 12.70&#10;  A 0.68 0.68 0.0 0 1 140.64 12.24&#10;  Z"/>
<path fill="#005a9a" d="&#10;  M 185.59 12.19&#10;  L 194.36 12.19&#10;  A 0.54 0.54 0.0 0 1 194.90 12.73&#10;  L 194.90 48.44&#10;  A 0.54 0.54 0.0 0 1 193.91 48.74&#10;  L 185.14 35.30&#10;  A 0.54 0.54 0.0 0 1 185.05 35.01&#10;  L 185.05 12.73&#10;  A 0.54 0.54 0.0 0 1 185.59 12.19&#10;  Z"/>
<path fill="#fdfff9" fill-opacity="0.988" d="&#10;  M 159.29 15.48&#10;  Q 160.09 15.71 160.58 16.41&#10;  Q 163.84 21.02 166.57 25.90&#10;  Q 166.68 25.99 166.80 26.09&#10;  Q 165.55 26.15 165.16 25.58&#10;  Q 161.90 20.89 158.79 16.07&#10;  Q 158.89 15.81 159.29 15.48&#10;  Z"/>
<path fill="#005a9a" d="&#10;  M 158.79 16.07&#10;  Q 161.90 20.89 165.16 25.58&#10;  Q 165.55 26.15 166.80 26.09&#10;  Q 168.31 38.40 167.96 52.19&#10;  A 0.85 0.84 -89.3 0 1 167.12 53.02&#10;  L 158.96 53.02&#10;  A 0.72 0.72 0.0 0 1 158.24 52.30&#10;  L 158.06 16.90&#10;  A 0.21 0.19 -24.2 0 1 158.12 16.76&#10;  L 158.79 16.07&#10;  Z"/>
<path fill="#005a9a" d="&#10;  M 144.39 59.97&#10;  A 0.89 0.88 47.1 0 0 144.33 61.69&#10;  C 147.02 62.44 150.18 62.91 150.22 65.58&#10;  C 150.29 70.50 144.36 70.51 141.60 68.26&#10;  A 1.50 1.19 56.1 0 1 141.80 65.80&#10;  Q 142.17 65.74 142.72 66.05&#10;  Q 144.40 66.99 144.98 67.31&#10;  A 2.18 2.18 0.0 0 0 147.21 67.22&#10;  L 147.60 66.96&#10;  A 0.84 0.84 0.0 0 0 147.39 65.46&#10;  C 144.28 64.50 140.36 64.13 141.46 60.17&#10;  Q 141.98 58.33 143.71 58.12&#10;  C 145.65 57.89 149.09 57.74 149.71 60.19&#10;  A 0.93 0.92 -77.1 0 1 148.22 61.13&#10;  Q 146.38 59.58 144.39 59.97&#10;  Z"/>
<path fill="#005a9a" d="&#10;  M 159.45 58.11&#10;  Q 161.37 58.05 163.33 58.14&#10;  A 0.83 0.83 0.0 0 1 164.12 58.97&#10;  L 164.12 59.35&#10;  A 0.61 0.60 90.0 0 1 163.52 59.96&#10;  L 161.35 59.96&#10;  A 0.67 0.66 -5.6 0 0 160.69 60.75&#10;  Q 160.97 62.08 160.76 68.01&#10;  Q 160.72 69.37 159.52 69.37&#10;  Q 158.32 69.38 158.26 68.03&#10;  Q 157.98 62.10 158.24 60.77&#10;  A 0.67 0.66 4.9 0 0 157.57 59.98&#10;  L 155.40 60.01&#10;  A 0.61 0.60 89.3 0 1 154.79 59.41&#10;  L 154.79 59.03&#10;  A 0.83 0.83 0.0 0 1 155.57 58.19&#10;  Q 157.52 58.07 159.45 58.11&#10;  Z"/>
<rect fill="#005a9a" x="-1.29" y="-5.62" transform="translate(170.26,63.72) rotate(0.4)" width="2.58" height="11.24" rx="1.24"/>
<path fill="#005a9a" d="&#10;  M 179.63 63.79&#10;  Q 179.67 65.22 180.00 66.01&#10;  A 2.45 2.44 -30.9 0 0 183.81 66.95&#10;  Q 184.83 66.11 185.97 65.54&#10;  A 0.84 0.84 0.0 0 1 187.19 66.29&#10;  L 187.19 66.69&#10;  A 1.77 1.75 -15.4 0 1 186.32 68.20&#10;  C 181.83 70.85 176.95 69.40 176.79 63.87&#10;  C 176.64 58.35 181.43 56.62 186.06 59.01&#10;  A 1.77 1.75 12.2 0 1 187.01 60.47&#10;  L 187.04 60.87&#10;  A 0.84 0.84 0.0 0 1 185.86 61.69&#10;  Q 184.69 61.18 183.63 60.40&#10;  A 2.45 2.44 27.7 0 0 179.87 61.56&#10;  Q 179.59 62.37 179.63 63.79&#10;  Z"/>
<path fill="#005a9a" d="&#10;  M 102.11 65.84&#10;  L 101.94 68.38&#10;  A 0.81 0.81 0.0 0 1 100.92 69.11&#10;  L 100.60 68.94&#10;  A 1.34 1.34 0.0 0 1 99.90 67.76&#10;  L 99.90 59.14&#10;  A 0.68 0.67 88.2 0 1 100.53 58.46&#10;  C 103.77 58.26 108.88 56.90 108.26 62.57&#10;  A 2.99 2.55 89.5 0 1 106.11 65.13&#10;  Q 104.19 65.47 102.82 65.27&#10;  A 0.63 0.62 6.1 0 0 102.11 65.84&#10;  Z&#10;  M 102.14 60.19&#10;  L 102.04 62.79&#10;  A 0.28 0.28 0.0 0 0 102.31 63.08&#10;  L 104.32 63.16&#10;  A 1.77 1.30 2.3 0 0 106.14 61.93&#10;  L 106.16 61.37&#10;  A 1.77 1.30 2.3 0 0 104.44 60.00&#10;  L 102.43 59.92&#10;  A 0.28 0.28 0.0 0 0 102.14 60.19&#10;  Z"/>
<path fill="#005a9a" d="&#10;  M 120.97 67.43&#10;  A 0.77 0.77 0.0 0 1 121.63 68.25&#10;  L 121.63 68.27&#10;  A 0.79 0.79 0.0 0 1 120.82 69.09&#10;  L 114.38 68.97&#10;  A 0.57 0.56 1.0 0 1 113.82 68.40&#10;  L 113.90 59.01&#10;  A 0.82 0.81 -78.4 0 1 115.03 58.26&#10;  L 115.19 58.32&#10;  A 1.49 1.49 0.0 0 1 116.12 59.76&#10;  Q 115.80 67.50 116.79 67.42&#10;  Q 119.40 67.22 120.97 67.43&#10;  Z"/>
<path fill="#005a9a" d="&#10;  M 126.17 68.08&#10;  Q 127.31 64.09 129.03 59.78&#10;  Q 129.39 58.89 129.93 58.53&#10;  A 2.13 2.11 -24.8 0 1 133.14 59.69&#10;  Q 134.53 64.53 135.92 67.83&#10;  Q 136.14 68.34 135.83 68.68&#10;  A 1.48 1.46 50.3 0 1 133.50 68.45&#10;  Q 132.39 66.67 129.89 66.93&#10;  A 1.02 1.01 -84.2 0 0 129.03 67.64&#10;  Q 128.83 68.30 127.66 69.14&#10;  A 0.97 0.97 0.0 0 1 126.17 68.08&#10;  Z&#10;  M 130.1404 62.9269&#10;  A 1.19 0.95 -134.2 0 0 130.2889 64.4423&#10;  A 1.19 0.95 -134.2 0 0 131.7996 64.6331&#10;  A 1.19 0.95 -134.2 0 0 131.6511 63.1177&#10;  A 1.19 0.95 -134.2 0 0 130.1404 62.9269&#10;  Z"/>
<path fill="#005a9a" d="&#10;  M 18.72 80.31&#10;  L 40.86 69.72&#10;  A 0.33 0.33 0.0 0 1 41.14 69.72&#10;  L 63.31 80.23&#10;  A 0.33 0.33 0.0 0 1 63.17 80.86&#10;  L 18.86 80.94&#10;  A 0.33 0.33 0.0 0 1 18.72 80.31&#10;  Z"/>
</svg>